<?xml version="1.0" encoding="utf-8"?>
<!-- Generator: Adobe Illustrator 23.1.1, SVG Export Plug-In . SVG Version: 6.00 Build 0)  -->
<svg version="1.1" id="Layer_1" xmlns="http://www.w3.org/2000/svg" xmlns:xlink="http://www.w3.org/1999/xlink" x="0px" y="0px"
	 viewBox="0 0 1080 1080" style="enable-background:new 0 0 1080 1080;" xml:space="preserve">
<style type="text/css">
	.st0{fill:#7C00FF;}
</style>
<path class="st0" d="M540.79,761.78c-48.61-7.31-94.09-27.33-130.54-58.89c-1.71-1.49-3.35-3.07-5.03-4.62
	c-3.37-3.1-6.63-6.33-9.83-9.63c-3.19-3.29-6.2-6.7-9.19-10.13c-2.93-3.41-5.86-6.83-8.6-10.43
	c-33.87-43.49-52.42-96.63-52.42-152.77c0-57.8,19.52-112.5,55.32-156.67c0.69-0.87,1.42-1.71,2.12-2.57
	c4.88-5.86,10-11.58,15.46-17.04c11.16-11.16,23.29-20.99,36.06-29.68c3.71-2.48,7.41-4.95,11.25-7.22
	c1.53-0.92,3.06-1.84,4.61-2.73c27.76-15.64,58.58-26.11,90.79-30.95c21.49-3.22,40.44-14.63,53.35-32.12
	c12.92-17.49,18.26-38.97,15.03-60.48c-3.23-21.51-14.65-40.46-32.14-53.38c-16.37-12.09-36.24-17.43-56.34-15.42v-0.12
	c-0.59,0.08-1.17,0.22-1.76,0.3c-0.79,0.1-1.58,0.12-2.37,0.24c-7.21,1.08-14.34,2.38-21.43,3.82
	c-79.93,15.44-153.45,53.89-212.17,112.61c-160.41,160.42-160.68,421.28-0.8,582.03l0.01,0.01l0.88,0.88
	c0.04,0.04,0.08,0.08,0.13,0.13l0.11,0.11v0c64.9,64.75,147.74,105.08,237.41,116.65v-0.51c20.11,2.01,39.97-3.33,56.34-15.42
	c17.49-12.92,28.91-31.87,32.14-53.38c3.23-21.51-2.11-42.99-15.03-60.48C581.22,776.42,562.27,765.01,540.79,761.78z"/>
<g>
	<path class="st0" d="M800.42,358.43c65.39,0,118.59-51.7,118.59-115.25c0-65.39-53.2-118.59-118.59-118.59
		c-63.55,0-115.25,53.2-115.25,118.59C685.17,306.73,736.87,358.43,800.42,358.43z"/>
	<path class="st0" d="M913.91,685.93c-10.9-37.92-41.19-83.13-123.5-83.13c-63.55,0-115.26,51.7-115.26,115.25
		c0,59.48,44.98,108.74,103.48,114.65v141.13l18.03-11.29C890.56,903.68,936.8,765.51,913.91,685.93z"/>
</g>
</svg>
